<svg xmlns="http://www.w3.org/2000/svg" viewBox="0 0 231.19 49.12"><defs><style>.cls-1,.cls-2{fill:#231f20;}.cls-1{stroke:#231f20;stroke-miterlimit:10;stroke-width:0.5px;}.cls-2{font-size:33px;font-family:URWGothicL-Demi, URW Gothic L;}.cls-3{letter-spacing:-0.01em;}</style></defs><title>Asset 1</title><g id="Layer_2" data-name="Layer 2"><g id="Layer_1-2" data-name="Layer 1"><path class="cls-1" d="M.25,41.13V10.48H7v3A7.65,7.65,0,0,1,11.32,10a10.41,10.41,0,0,1,2.32-.22h.55v7.08Q7.61,17,7.61,24.09v17Z"/><path class="cls-1" d="M18,41.13V.25h7.36V13.31A12.58,12.58,0,0,1,33.5,9.43q.61-.05,1.33-.06a14.57,14.57,0,0,1,11.45,5.09,16.39,16.39,0,0,1,4,11.12,17.29,17.29,0,0,1-3.6,10.9,13.65,13.65,0,0,1-11.34,5.37,13.4,13.4,0,0,1-9-3,22.18,22.18,0,0,1-1.66-1.61v3.93Zm15.82-25a8.15,8.15,0,0,0-7.25,3.76,9.86,9.86,0,0,0-1.66,5.7q0,5.26,3.76,7.91a9,9,0,0,0,5.31,1.6,8.13,8.13,0,0,0,7.41-3.93,10.19,10.19,0,0,0,1.49-5.53,9.22,9.22,0,0,0-3.65-7.8A8.89,8.89,0,0,0,33.78,16.13Z"/><text class="cls-2" transform="translate(52.78 40.84)">associa<tspan class="cls-3" x="122.76" y="0">t</tspan><tspan x="132.33" y="0">es</tspan></text></g></g></svg>