<?xml version="1.0" encoding="utf-8"?>
<!-- Generator: Adobe Illustrator 18.1.1, SVG Export Plug-In . SVG Version: 6.00 Build 0)  -->
<svg version="1.1" id="Layer_1" xmlns="http://www.w3.org/2000/svg" xmlns:xlink="http://www.w3.org/1999/xlink" x="0px" y="0px"
	 viewBox="0 0 220.1 42.1" enable-background="new 0 0 220.1 42.1" xml:space="preserve">
<g>
	<g>
		<path d="M0.2,41.1V10.5H7v3c1.3-2,2.8-3.1,4.3-3.5c0.6-0.1,1.4-0.2,2.3-0.2h0.6v7.1c-4.4,0.1-6.6,2.5-6.6,7.2v17H0.2z"/>
		<path d="M7.9,41.4H0V10.2h7.2v2.5c1.2-1.6,2.6-2.6,4-3c0.6-0.2,1.4-0.2,2.4-0.2h0.8v7.6l-0.2,0c-4.3,0.1-6.3,2.4-6.3,7V41.4z
			 M0.5,40.9h6.9V24.1c0-4.8,2.2-7.3,6.6-7.5V10h-0.3c-0.9,0-1.7,0.1-2.3,0.2c-1.5,0.4-2.9,1.5-4.2,3.4l-0.5,0.7v-3.5H0.5V40.9z"/>
	</g>
	<g>
		<path d="M18,41.1V0.2h7.4v13.1c2.4-2.4,5.1-3.7,8.2-3.9c0.4,0,0.8-0.1,1.3-0.1c4.6,0,8.5,1.7,11.5,5.1c2.7,3.1,4,6.8,4,11.1
			c0,4.2-1.2,7.8-3.6,10.9c-2.8,3.6-6.6,5.4-11.3,5.4c-3.6,0-6.6-1-9-3c-0.6-0.5-1.1-1-1.7-1.6v3.9H18z M33.8,16.1
			c-3.2,0-5.6,1.3-7.2,3.8c-1.1,1.6-1.7,3.5-1.7,5.7c0,3.5,1.3,6.1,3.8,7.9c1.5,1.1,3.3,1.6,5.3,1.6c3.3,0,5.8-1.3,7.4-3.9
			c1-1.6,1.5-3.4,1.5-5.5c0-3.4-1.2-6-3.7-7.8C37.6,16.7,35.8,16.1,33.8,16.1z"/>
		<path d="M35.3,42.1c-3.6,0-6.7-1-9.1-3.1c-0.4-0.4-0.8-0.8-1.2-1.2v3.6h-7.3V0h7.9v12.7c2.3-2.1,5-3.3,7.9-3.5
			c0.4,0,0.9-0.1,1.3-0.1c4.7,0,8.6,1.7,11.6,5.2c2.7,3.1,4,6.9,4,11.3c0,4.2-1.2,7.9-3.6,11.1C44,40.3,40.1,42.1,35.3,42.1z
			 M24.5,36.6l0.4,0.5c0.5,0.6,1.1,1.1,1.6,1.6c2.3,2,5.3,3,8.8,3c4.7,0,8.4-1.8,11.1-5.3c2.4-3,3.5-6.7,3.5-10.7
			c0-4.3-1.3-8-3.9-11c-2.9-3.3-6.7-5-11.3-5c-0.5,0-0.9,0-1.3,0.1c-3,0.2-5.7,1.5-8,3.8l-0.4,0.4V0.5h-6.9v40.4h6.3V36.6z
			 M33.9,35.4c-2.1,0-3.9-0.6-5.5-1.7c-2.6-1.8-3.9-4.5-3.9-8.1c0-2.2,0.6-4.2,1.7-5.8c1.7-2.6,4.2-3.9,7.5-3.9c2.1,0,4,0.6,5.6,1.8
			c2.5,1.9,3.8,4.6,3.8,8c0,2.1-0.5,4-1.5,5.7C39.9,34,37.3,35.4,33.9,35.4z M33.8,16.4c-3.1,0-5.4,1.2-7,3.7
			c-1.1,1.6-1.6,3.4-1.6,5.6c0,3.4,1.2,6,3.7,7.7c1.5,1,3.2,1.6,5.2,1.6c3.2,0,5.6-1.3,7.2-3.8c1-1.5,1.5-3.4,1.5-5.4
			c0-3.3-1.2-5.8-3.6-7.6C37.6,16.9,35.8,16.4,33.8,16.4z"/>
	</g>
</g>
<g>
	<path d="M73.1,22.6v18.3h-4v-2.4c-1.5,1.7-3.1,2.6-5.1,2.8c-0.3,0-0.6,0-1,0c-2.9,0-5.2-1-7-3.1c-1.5-1.8-2.2-3.9-2.2-6.4
		c0-3,1-5.5,3-7.3c1.7-1.5,3.8-2.3,6.3-2.3c2.4,0,4.3,0.8,5.7,2.5c0.1,0.1,0.2,0.2,0.3,0.4v-2.4H73.1z M63.5,26.2
		c-1.9,0-3.4,0.8-4.4,2.3c-0.6,1-1,2.1-1,3.4c0,2,0.8,3.6,2.3,4.5c0.9,0.6,1.9,0.9,3.1,0.9c1.7,0,3.1-0.5,4-1.7
		c0.8-1.1,1.3-2.4,1.3-3.8c0-2.1-0.7-3.7-2.2-4.7C65.8,26.5,64.7,26.2,63.5,26.2z"/>
	<path d="M75.2,35h4.4c0.4,1.3,1.1,2.1,2,2.2c0.1,0,0.3,0,0.4,0c0.9,0,1.5-0.4,1.8-1.1c0.1-0.2,0.2-0.5,0.2-0.7
		c0-0.6-0.3-1.1-0.8-1.4c-0.4-0.2-1.1-0.5-2.3-0.9c-2.6-0.9-4.1-2-4.7-3.4c-0.2-0.6-0.4-1.2-0.4-2c0-1.8,0.7-3.3,2.2-4.4
		c1.1-0.8,2.4-1.2,3.8-1.2c1.9,0,3.5,0.7,4.7,2c0.8,0.9,1.3,2.1,1.3,3.5h-4.3c-0.2-1-0.8-1.5-1.7-1.5c-0.8,0-1.3,0.3-1.6,1l-0.1,0.6
		c0,0.5,0.3,1,0.9,1.2c0.3,0.1,1,0.4,2.2,0.8c1.6,0.5,2.8,1,3.4,1.6c1.1,0.9,1.7,2.2,1.7,3.8c0,2-0.8,3.6-2.3,4.8
		c-1.2,0.9-2.6,1.4-4.2,1.4c-2,0-3.7-0.7-5-2c-0.2-0.2-0.3-0.4-0.5-0.6C75.8,37.9,75.4,36.6,75.2,35z"/>
	<path d="M89.7,35h4.4c0.4,1.3,1.1,2.1,2,2.2c0.1,0,0.3,0,0.4,0c0.9,0,1.5-0.4,1.8-1.1c0.1-0.2,0.2-0.5,0.2-0.7
		c0-0.6-0.3-1.1-0.8-1.4c-0.4-0.2-1.1-0.5-2.3-0.9c-2.6-0.9-4.1-2-4.7-3.4c-0.2-0.6-0.4-1.2-0.4-2c0-1.8,0.7-3.3,2.2-4.4
		c1.1-0.8,2.4-1.2,3.8-1.2c1.9,0,3.5,0.7,4.7,2c0.8,0.9,1.3,2.1,1.3,3.5h-4.3c-0.2-1-0.8-1.5-1.7-1.5c-0.8,0-1.3,0.3-1.6,1l-0.1,0.6
		c0,0.5,0.3,1,0.9,1.2c0.3,0.1,1,0.4,2.2,0.8c1.6,0.5,2.8,1,3.4,1.6c1.1,0.9,1.7,2.2,1.7,3.8c0,2-0.8,3.6-2.3,4.8
		c-1.2,0.9-2.6,1.4-4.2,1.4c-2,0-3.7-0.7-5-2c-0.2-0.2-0.3-0.4-0.5-0.6C90.3,37.9,89.9,36.6,89.7,35z"/>
	<path d="M114.3,22.1c2.9,0,5.2,1,7.1,3c1.8,1.8,2.6,4.1,2.6,6.7c0,2.6-1,4.8-2.9,6.7c-1.9,1.8-4.2,2.8-6.8,2.8c-2.7,0-5-1-6.9-2.9
		c-1.8-1.9-2.8-4.1-2.8-6.7c0-2.7,1-4.9,2.9-6.8C109.4,23.1,111.6,22.1,114.3,22.1z M114.3,26.2c-1.6,0-3,0.7-4.1,2
		c-0.8,1-1.2,2.2-1.2,3.5c0,1.9,0.7,3.4,2.1,4.5c0.9,0.7,2,1.1,3.2,1.1c1.7,0,3.1-0.7,4.1-2.1c0.8-1,1.2-2.2,1.2-3.5
		c0-1.8-0.7-3.2-2-4.4C116.6,26.5,115.5,26.2,114.3,26.2z"/>
	<path d="M139.6,34.8h5c-1.1,3-3,5-5.7,5.9c-1,0.4-2.1,0.5-3.3,0.5c-2.8,0-5.1-1-7-2.9c-1.8-1.8-2.7-4.1-2.7-6.7c0-2.8,1-5.1,3-7
		c1.8-1.7,4-2.6,6.7-2.6c2.6,0,4.9,0.9,6.7,2.6c1,0.9,1.8,2.1,2.3,3.4c0.1,0.2,0.1,0.4,0.2,0.6h-5c-0.9-1.7-2.3-2.5-4.3-2.5
		c-1.9,0-3.3,0.8-4.3,2.3c-0.6,0.9-0.9,2-0.9,3.2c0,2,0.7,3.5,2.1,4.6c0.9,0.7,2,1,3.2,1c1.7,0,3.1-0.8,4.1-2.3
		C139.6,34.9,139.6,34.9,139.6,34.8z"/>
	<path d="M147.6,20.6v-4.1h4.4v4.1H147.6z M147.6,40.8V22.6h4.4v18.3H147.6z"/>
	<path d="M174.1,22.6v18.3h-4v-2.4c-1.5,1.7-3.1,2.6-5.1,2.8c-0.3,0-0.6,0-1,0c-2.9,0-5.2-1-7-3.1c-1.5-1.8-2.2-3.9-2.2-6.4
		c0-3,1-5.5,3-7.3c1.7-1.5,3.8-2.3,6.3-2.3c2.4,0,4.3,0.8,5.7,2.5c0.1,0.1,0.2,0.2,0.3,0.4v-2.4H174.1z M164.5,26.2
		c-1.9,0-3.4,0.8-4.4,2.3c-0.6,1-1,2.1-1,3.4c0,2,0.8,3.6,2.3,4.5c0.9,0.6,1.9,0.9,3.1,0.9c1.7,0,3.1-0.5,4-1.7
		c0.8-1.1,1.3-2.4,1.3-3.8c0-2.1-0.7-3.7-2.2-4.7C166.8,26.5,165.7,26.2,164.5,26.2z"/>
	<path d="M178,40.8V26.5h-2.1v-4h2.1v-6.1h4.4v6.1h2.6v4h-2.6v14.3H178z"/>
	<path d="M205,33.6h-14.2c0.4,1.6,1.4,2.7,3,3.3c0.6,0.2,1.3,0.3,2,0.3c1.5,0,2.7-0.5,3.6-1.4c0.1-0.1,0.3-0.3,0.4-0.4h4.8
		c-0.3,0.8-0.7,1.7-1.5,2.5c-1.9,2.2-4.3,3.3-7.3,3.3c-2.9,0-5.3-1-7.3-3c-1.8-1.8-2.6-4-2.6-6.5c0-2.8,1-5.1,2.9-7
		c1.8-1.8,4.1-2.7,6.7-2.7c2.9,0,5.3,1,7.1,3.1c1.6,1.8,2.4,4.1,2.4,6.7C205.2,32.6,205.1,33.1,205,33.6z M190.7,29.8h10.1
		c-0.5-2.2-1.9-3.4-4.2-3.6c-0.3,0-0.5,0-0.8,0c-2.5,0-4.2,1.1-4.9,3.3C190.8,29.5,190.8,29.7,190.7,29.8z"/>
	<path d="M206.9,35h4.4c0.4,1.3,1.1,2.1,2,2.2c0.1,0,0.3,0,0.4,0c0.9,0,1.5-0.4,1.8-1.1c0.1-0.2,0.2-0.5,0.2-0.7
		c0-0.6-0.3-1.1-0.8-1.4c-0.4-0.2-1.1-0.5-2.3-0.9c-2.6-0.9-4.1-2-4.7-3.4c-0.2-0.6-0.4-1.2-0.4-2c0-1.8,0.7-3.3,2.2-4.4
		c1.1-0.8,2.4-1.2,3.8-1.2c1.9,0,3.5,0.7,4.7,2c0.8,0.9,1.3,2.1,1.3,3.5h-4.3c-0.2-1-0.8-1.5-1.7-1.5c-0.8,0-1.3,0.3-1.6,1l-0.1,0.6
		c0,0.5,0.3,1,0.9,1.2c0.3,0.1,1,0.4,2.2,0.8c1.6,0.5,2.8,1,3.4,1.6c1.1,0.9,1.7,2.2,1.7,3.8c0,2-0.8,3.6-2.3,4.8
		c-1.2,0.9-2.6,1.4-4.2,1.4c-2,0-3.7-0.7-5-2c-0.2-0.2-0.3-0.4-0.5-0.6C207.4,37.9,207,36.6,206.9,35z"/>
</g>
<g>
</g>
<g>
</g>
<g>
</g>
<g>
</g>
<g>
</g>
<g>
</g>
</svg>
