<svg xmlns="http://www.w3.org/2000/svg" viewBox="0 0 220.09 42.1"><defs><style>.cls-1,.cls-2{fill:#f1f1f1;}.cls-1{stroke:#333;stroke-miterlimit:10;stroke-width:0.5px;}</style></defs><title>h-logo-white</title><g id="Layer_2" data-name="Layer 2"><g id="Layer_1-2" data-name="Layer 1"><path class="cls-1" d="M.25,41.13V10.48H7v3A7.65,7.65,0,0,1,11.32,10a10.41,10.41,0,0,1,2.32-.22h.55v7.08Q7.61,17,7.61,24.09v17Z"/><path class="cls-1" d="M18,41.13V.25h7.36V13.31A12.58,12.58,0,0,1,33.5,9.43q.61-.05,1.33-.06a14.57,14.57,0,0,1,11.45,5.09,16.39,16.39,0,0,1,4,11.12,17.29,17.29,0,0,1-3.6,10.9,13.65,13.65,0,0,1-11.34,5.37,13.4,13.4,0,0,1-9-3,22.18,22.18,0,0,1-1.66-1.61v3.93Zm15.82-25a8.15,8.15,0,0,0-7.25,3.76,9.86,9.86,0,0,0-1.66,5.7q0,5.26,3.76,7.91a9,9,0,0,0,5.31,1.6,8.13,8.13,0,0,0,7.41-3.93,10.19,10.19,0,0,0,1.49-5.53,9.22,9.22,0,0,0-3.65-7.8A8.89,8.89,0,0,0,33.78,16.13Z"/><path class="cls-2" d="M73.08,22.56V40.84H69V38.46A7.69,7.69,0,0,1,64,41.24q-.46,0-1,0a8.73,8.73,0,0,1-7-3.07,9.6,9.6,0,0,1-2.24-6.44,9.45,9.45,0,0,1,3-7.33,9.06,9.06,0,0,1,6.27-2.31,7.08,7.08,0,0,1,5.71,2.51q.13.17.26.36V22.56Zm-9.54,3.6a4.88,4.88,0,0,0-4.39,2.31,6,6,0,0,0-1,3.4,5,5,0,0,0,2.31,4.52,5.56,5.56,0,0,0,3.1.86,4.92,4.92,0,0,0,4-1.65,6.71,6.71,0,0,0,1.32-3.76,5.4,5.4,0,0,0-2.24-4.72A5.29,5.29,0,0,0,63.54,26.15Z"/><path class="cls-2" d="M75.19,35h4.42q.56,2,2,2.18a2.35,2.35,0,0,0,.4,0,1.79,1.79,0,0,0,1.81-1.06,1.74,1.74,0,0,0,.17-.73A1.62,1.62,0,0,0,83.21,34a13.23,13.23,0,0,0-2.28-.92q-3.83-1.29-4.72-3.43a5,5,0,0,1-.36-2,5.15,5.15,0,0,1,2.24-4.36,6.27,6.27,0,0,1,3.83-1.22,6,6,0,0,1,4.69,2,5.37,5.37,0,0,1,1.32,3.46H83.64a1.61,1.61,0,0,0-1.72-1.45,1.58,1.58,0,0,0-1.58,1l-.1.59a1.29,1.29,0,0,0,.89,1.22q.43.2,2.21.76a10.08,10.08,0,0,1,3.37,1.55A4.56,4.56,0,0,1,88.42,35a5.85,5.85,0,0,1-2.34,4.82,6.53,6.53,0,0,1-4.19,1.42,6.73,6.73,0,0,1-5-2,3.64,3.64,0,0,1-.46-.56A7.53,7.53,0,0,1,75.19,35Z"/><path class="cls-2" d="M89.71,35h4.42q.56,2,2,2.18a2.35,2.35,0,0,0,.4,0,1.79,1.79,0,0,0,1.81-1.06,1.74,1.74,0,0,0,.17-.73A1.62,1.62,0,0,0,97.73,34a13.23,13.23,0,0,0-2.28-.92q-3.83-1.29-4.72-3.43a5,5,0,0,1-.36-2,5.15,5.15,0,0,1,2.24-4.36,6.27,6.27,0,0,1,3.83-1.22,6,6,0,0,1,4.69,2,5.37,5.37,0,0,1,1.32,3.46H98.16a1.61,1.61,0,0,0-1.72-1.45,1.58,1.58,0,0,0-1.58,1l-.1.59a1.29,1.29,0,0,0,.89,1.22q.43.2,2.21.76a10.08,10.08,0,0,1,3.37,1.55A4.56,4.56,0,0,1,102.94,35a5.85,5.85,0,0,1-2.34,4.82,6.53,6.53,0,0,1-4.19,1.42,6.73,6.73,0,0,1-5-2,3.64,3.64,0,0,1-.46-.56A7.53,7.53,0,0,1,89.71,35Z"/><path class="cls-2" d="M114.26,22.13a9.63,9.63,0,0,1,9.77,9.7,9,9,0,0,1-2.9,6.67,9.8,9.8,0,0,1-13.76-.1,9.44,9.44,0,0,1,.13-13.5A9.35,9.35,0,0,1,114.26,22.13Zm0,4a5,5,0,0,0-4.09,2,5.78,5.78,0,0,0,.89,8,5.07,5.07,0,0,0,3.23,1.12,5,5,0,0,0,4.13-2.08,5.57,5.57,0,0,0,1.15-3.46,5.42,5.42,0,0,0-2-4.36A5.07,5.07,0,0,0,114.29,26.15Z"/><path class="cls-2" d="M139.6,34.83h5a9.2,9.2,0,0,1-5.74,5.91,10.29,10.29,0,0,1-3.33.53,9.51,9.51,0,0,1-7-2.9,9.14,9.14,0,0,1-2.74-6.67,9.12,9.12,0,0,1,3-7,9.31,9.31,0,0,1,6.67-2.61,9.54,9.54,0,0,1,6.73,2.57,9,9,0,0,1,2.28,3.4c.07.18.13.36.2.56h-5a4.47,4.47,0,0,0-4.26-2.51,4.76,4.76,0,0,0-4.29,2.28,5.69,5.69,0,0,0-.92,3.23,5.37,5.37,0,0,0,2.15,4.55,5.19,5.19,0,0,0,3.17,1A4.74,4.74,0,0,0,139.54,35Z"/><path class="cls-2" d="M147.62,20.58V16.45H152v4.13Zm0,20.26V22.56H152V40.84Z"/><path class="cls-2" d="M174.05,22.56V40.84h-4V38.46a7.69,7.69,0,0,1-5.08,2.77q-.46,0-1,0a8.73,8.73,0,0,1-7-3.07,9.6,9.6,0,0,1-2.24-6.44,9.45,9.45,0,0,1,3-7.33,9.06,9.06,0,0,1,6.27-2.31,7.08,7.08,0,0,1,5.71,2.51q.13.17.26.36V22.56Zm-9.54,3.6a4.88,4.88,0,0,0-4.39,2.31,6,6,0,0,0-1,3.4,5,5,0,0,0,2.31,4.52,5.56,5.56,0,0,0,3.1.86,4.92,4.92,0,0,0,4-1.65,6.71,6.71,0,0,0,1.32-3.76,5.4,5.4,0,0,0-2.24-4.72A5.29,5.29,0,0,0,164.52,26.15Z"/><path class="cls-2" d="M178,40.84V26.55h-2.15v-4H178v-6.1h4.39v6.1H185v4h-2.64V40.84Z"/><path class="cls-2" d="M205,33.65H190.85a4.36,4.36,0,0,0,3,3.27,6,6,0,0,0,2,.33,4.91,4.91,0,0,0,3.63-1.39q.2-.2.4-.43h4.79A8.19,8.19,0,0,1,203.26,38a9.21,9.21,0,0,1-7.26,3.3,9.73,9.73,0,0,1-7.26-3,9,9,0,0,1-2.64-6.53,9.57,9.57,0,0,1,9.64-9.64,8.93,8.93,0,0,1,7.06,3.1A9.92,9.92,0,0,1,205.17,32,8.24,8.24,0,0,1,205,33.65Zm-14.29-3.86h10.13a4.4,4.4,0,0,0-4.22-3.6q-.4,0-.83,0-3.8,0-4.95,3.27Q190.78,29.59,190.72,29.78Z"/><path class="cls-2" d="M206.86,35h4.42q.56,2,2,2.18a2.35,2.35,0,0,0,.4,0,1.79,1.79,0,0,0,1.81-1.06,1.74,1.74,0,0,0,.17-.73,1.62,1.62,0,0,0-.83-1.42,13.23,13.23,0,0,0-2.28-.92q-3.83-1.29-4.72-3.43a5,5,0,0,1-.36-2,5.15,5.15,0,0,1,2.24-4.36,6.27,6.27,0,0,1,3.83-1.22,6,6,0,0,1,4.69,2,5.37,5.37,0,0,1,1.32,3.46H215.3a1.61,1.61,0,0,0-1.72-1.45,1.58,1.58,0,0,0-1.58,1l-.1.59a1.29,1.29,0,0,0,.89,1.22q.43.2,2.21.76a10.08,10.08,0,0,1,3.37,1.55A4.56,4.56,0,0,1,220.09,35a5.85,5.85,0,0,1-2.34,4.82,6.53,6.53,0,0,1-4.19,1.42,6.73,6.73,0,0,1-5-2,3.64,3.64,0,0,1-.46-.56A7.53,7.53,0,0,1,206.86,35Z"/></g></g></svg>
