<svg xmlns="http://www.w3.org/2000/svg" viewBox="0 0 405.57 72.61"><defs><style>.cls-1,.cls-3,.cls-4,.cls-5{fill:#121212;}.cls-2{fill:#fff;}.cls-2,.cls-3,.cls-4{stroke:#231f20;}.cls-2,.cls-3,.cls-4,.cls-5{stroke-miterlimit:10;}.cls-3{stroke-width:0.75px;}.cls-5{stroke:#fff;stroke-width:0.3px;}</style></defs><title>skyline_4</title><g id="Layer_2" data-name="Layer 2"><g id="Layer_1-2" data-name="Layer 1"><polygon class="cls-1" points="378.52 62.2 380.39 62.2 380.25 12.69 381.7 12.69 381.7 6.21 384.52 6.21 384.87 3.1 387.07 3.1 387.07 0.96 388.59 0.96 388.59 0 390.18 0 390.18 0.96 391.9 0.96 391.9 2.55 394.11 2.62 394.11 6.07 397.21 6 397.62 12.41 398.52 12.48 398.52 62.2 401.21 62.2 400.87 72.61 378.52 72.26 378.52 62.2"/><polygon class="cls-1" points="0 69.96 0 41.02 4.97 41.02 4.97 44.33 9.54 44.33 9.54 48.86 14.51 48.86 14.51 34.04 19.67 29.51 24.04 33.34 24.04 40.84 28.98 40.84 28.98 37.18 34.17 37.18 34.17 41.02 37.15 41.02 37.15 49.74 39.73 49.74 39.73 48.52 42.12 47.11 42.12 39.27 47.28 39.27 47.28 44.33 51.85 44.33 51.85 52 57.95 52 57.95 69.96 0 69.96"/><path class="cls-1" d="M197.64,54.06v0Z"/><path class="cls-1" d="M197.59,54.18l1.66.16v-.44l.17-5.66a0,0,0,0,1,0,0h6a0,0,0,0,1,0,0l-.17,5.67h.48l.17-1,.61-.13V47.07a.44.44,0,0,1,.13-.31l2.23-2.28a2.87,2.87,0,0,1,2-.12l.87.83v-4s-1.18,0-1.18-.39c0-1.35,1.13-.7,1.18-.92s0-1.94,0-2.47a.22.22,0,0,0-.14-.2l-.8-.29a.18.18,0,0,1-.06-.3s1-.72,1-.94-.72-.35-.72-.35V35l.39-2.26a4.06,4.06,0,0,1,2.09.05l.26,1.95-.35.52,0,.35s.78-.09.92.31-.73.67-.73.67a1.41,1.41,0,0,0-.45,1v2.18s1.18,0,1.18.52-1.26.87-1.26.87l.31,3.1.77,1a.28.28,0,0,1,0,.36l-1,1.15a0,0,0,0,0,0,0l1.62.71,3.32-2.35a1.68,1.68,0,0,1,1.05-.31l1.21.06.13-28.55A3.8,3.8,0,0,1,224,15.19l.09.74-.17,28.25,1.26.44,1.81-.25a1.81,1.81,0,0,1,.81.07l5.75,1.4V29.27a.1.1,0,0,0-.12-.1l-1,.19,0-1.66,1.44-1.4h10.46v.92l-.78.91h0L259,34.63a3.37,3.37,0,0,1,1.31,1.47l.87,8.78.6.27a.63.63,0,0,1,.37.57V69H128.57V46.32h.86a.2.2,0,0,0,.2-.2v-10a.2.2,0,0,1,.25-.2l1,.25a.2.2,0,0,1,.15.2v7.77h.52v-3.5a.2.2,0,0,1,0-.13L133,38.85l0-.06.5-1.34v0l.69-4.67v0l.39-1.24a.2.2,0,0,0-.08-.23h0a.87.87,0,0,1-.19-1.25l.25-.33a.2.2,0,0,1,.16-.08h.86a.2.2,0,0,1,.14.06l3.61,3.45a.2.2,0,0,0,.29,0c.11-.13.28-.29.39-.25s.21,1,.21,1a.26.26,0,0,0,.21.18l.45.06v1.27a.2.2,0,0,0,0,.06l.93,2.82a1.2,1.2,0,0,0,.55.67l1,.55.1,0h.77a1.23,1.23,0,0,1,.72.23l.64.46,1.22.87.88.57-.9.22h0l-3.51.24a.2.2,0,0,0-.19.2l-.1,3.59a.2.2,0,0,0,.21.21l2.9-.14a.2.2,0,0,0,.19-.19l.1-1.57a.2.2,0,0,1,.06-.13l.27-.27a.64.64,0,0,1,.82-.07l.32.22a1.26,1.26,0,0,0,.83.22l1.37-.12a.2.2,0,0,0,.14-.08l.43-.57a.2.2,0,0,0,0-.12V40.67a.2.2,0,0,1,.08-.17l.78-.56a.2.2,0,0,0,.08-.13c0-.18.12-.6.42-.6s.56,1,.56,1a.6.6,0,0,0,1,.13l.44-.69a.2.2,0,0,1,.1-.08l.62-.24a.77.77,0,0,0,.49-.72s-.26-.44-.15-.68c.31-.12,5.23,0,6.29,0a.2.2,0,0,0,.21-.2s.26-10.29.32-10.74c0,0,1.86-.43,2.39.69L164,37.47a.2.2,0,0,0,.2.2l4.25.12v-.32a.82.82,0,0,1,.23-.57l.64-.67a.56.56,0,0,1,.84,0l.65.79a.81.81,0,0,1,.18.51V38a.89.89,0,0,0,.4.74l1.54,1a.89.89,0,0,1,.33.39l.35.83a.46.46,0,0,0,.75.15l2-1.94a.2.2,0,0,0,.06-.19l-.35-1.73a.2.2,0,0,1,.06-.18l1.5-1.51a.2.2,0,0,0,.06-.14V33.94l-1.62,0v-.29l1.48-.52a.2.2,0,0,0,.13-.19V31.11a.2.2,0,0,0,0-.09l-.6-1.29a.2.2,0,0,1,0-.08V28.55a.2.2,0,0,1,.2-.21H178a.2.2,0,0,0,.2-.2v-.94a.2.2,0,0,0-.2-.2h-1.35l.23-.42L187,26.31l-.15.37-1.53.25a.2.2,0,0,0-.17.2l0,1.12a.2.2,0,0,0,.21.2H186a.2.2,0,0,1,.21.19l.09,1.87a.2.2,0,0,1-.09.18l-.4.27a.2.2,0,0,0-.09.17l.15,12.11a.2.2,0,0,0,.21.2h.49a.2.2,0,0,1,.21.19L187,47a.2.2,0,0,1-.14.21,1.56,1.56,0,0,0-.5.22,1.68,1.68,0,0,0,0,.49.2.2,0,0,1,0,.14l-.59.79a.2.2,0,0,0,0,.27l1,1a.2.2,0,0,0,.17.06l2.74-.41a.2.2,0,0,1,.14,0l.69.46a.2.2,0,0,1,.09.17v4.4l6.94,1.26"/><path class="cls-2" d="M254.43,49.47s.26-2.62,0-2.39,2.09-1.47,2.09-1.47,1-6.38.59-7.49c-1.37-3.33-15.89-7.62-15.89-7.62h-3.43l-2,1.08v1.47l1.47,0-.13,3.66.56,1.47,0,1.77L237,41.13s-.13,12.13,0,12.16,16.05,0,16.05,0a19.59,19.59,0,0,1-.26-2.68A8.15,8.15,0,0,1,254.43,49.47Z"/><path class="cls-1" d="M87,18.3V15.63h.35v1.1h1.39v-1.1h.35V18.3h-.35V17H87.37V18.3Z"/><path class="cls-1" d="M89.77,17a1.45,1.45,0,0,1,.36-1,1.21,1.21,0,0,1,.92-.38,1.28,1.28,0,0,1,.67.18,1.15,1.15,0,0,1,.45.49,1.6,1.6,0,0,1,.16.72,1.57,1.57,0,0,1-.16.73,1.12,1.12,0,0,1-.46.48,1.33,1.33,0,0,1-.65.16,1.26,1.26,0,0,1-.67-.18,1.17,1.17,0,0,1-.45-.5A1.51,1.51,0,0,1,89.77,17Zm.36,0a1.07,1.07,0,0,0,.26.76.9.9,0,0,0,1.31,0A1.13,1.13,0,0,0,92,17a1.37,1.37,0,0,0-.11-.57.85.85,0,0,0-.32-.38.87.87,0,0,0-.48-.13.9.9,0,0,0-.64.26A1.15,1.15,0,0,0,90.14,17Z"/><path class="cls-1" d="M93.65,18.3V15.95h-.88v-.31h2.11v.31H94V18.3Z"/><path class="cls-1" d="M95.44,18.3V15.63h1.93v.31H95.79v.82h1.48v.31H95.79V18h1.64v.31Z"/><path class="cls-1" d="M98.09,18.3V15.63h.35V18h1.31v.31Z"/><path class="cls-1" d="M81.37,22.25V19.58h1a1.24,1.24,0,0,1,.49.08.63.63,0,0,1,.29.25.66.66,0,0,1,.1.35.6.6,0,0,1-.09.32.66.66,0,0,1-.28.24.7.7,0,0,1,.37.24.65.65,0,0,1,.13.4.78.78,0,0,1-.08.35.67.67,0,0,1-.2.25.82.82,0,0,1-.29.13,1.78,1.78,0,0,1-.43,0Zm.35-1.55h.58a1.29,1.29,0,0,0,.34,0,.37.37,0,0,0,.2-.13.38.38,0,0,0,.07-.23.43.43,0,0,0-.06-.23.32.32,0,0,0-.18-.14,1.52,1.52,0,0,0-.41,0h-.53Zm0,1.23h.9a.58.58,0,0,0,.2-.07A.39.39,0,0,0,83,21.7a.46.46,0,0,0,.05-.22.44.44,0,0,0-.08-.26.4.4,0,0,0-.21-.15,1.31,1.31,0,0,0-.39,0h-.62Z"/><path class="cls-1" d="M84.07,22.25V19.58H86v.31H84.42v.82h1.48V21H84.42v.91h1.64v.31Z"/><path class="cls-1" d="M87.41,22.25V19.9h-.88v-.31h2.11v.31h-.88v2.35Z"/><path class="cls-1" d="M89.2,22.25V19.58h.35v1.1h1.39v-1.1h.35v2.67h-.35V21H89.56v1.26Z"/><path class="cls-1" d="M92.06,22.25V19.58h.35v2.35h1.31v.31Z"/><path class="cls-1" d="M94.34,22.25V19.58h1.93v.31H94.69v.82h1.48V21H94.69v.91h1.64v.31Z"/><path class="cls-1" d="M97,22.25V19.58h.35v1.1h1.39v-1.1h.35v2.67h-.35V21H97.36v1.26Z"/><path class="cls-1" d="M99.88,22.25V19.58h1.93v.31h-1.58v.82h1.48V21h-1.48v.91h1.64v.31Z"/><path class="cls-1" d="M102.54,22.25V19.58h.53l.63,1.89.13.39.14-.43.64-1.86h.47v2.67h-.34V20L104,22.25h-.32L102.88,20v2.27Z"/><rect class="cls-1" x="76.68" y="23.29" width="32.79" height="45.27"/><polygon class="cls-1" points="301.82 69.44 301.82 16.78 312.02 16.78 312.02 11.42 327.59 11.42 327.59 16.78 337.66 16.91 338.18 69.44 301.82 69.44"/><line class="cls-1" x1="312.03" y1="16.78" x2="312.03" y2="69.44"/><line class="cls-1" x1="327.59" y1="11.42" x2="327.57" y2="69.46"/><polyline class="cls-1" points="57.95 66.92 62.19 66.92 62.19 46.93 73.17 46.93 73.17 66.92 76.68 66.92"/><polyline class="cls-1" points="109.47 66.92 112.41 66.92 112.41 56.17 123.22 56.17 123.22 66.92 128.57 66.92"/><polygon class="cls-1" points="265.86 68.01 265.86 41.83 265.86 38.54 271.24 38.54 271.24 41.98 274.32 41.98 274.32 49.82 277 49.82 277 48.73 279.46 47.46 279.46 40.42 284.81 40.42 284.81 44.96 289.54 44.96 289.54 51.86 295.86 51.86 295.86 68.01 265.86 68.01"/><path class="cls-3" d="M295.86,66.38"/><path class="cls-3" d="M7.08,66.38"/><polyline class="cls-1" points="338.15 66.96 346.55 66.96 346.55 35.61 353.88 35.61 353.88 46.8 358.45 46.8 358.45 41.21 362.9 41.21 362.9 46.8 368 46.8 368 66.96 374.15 66.96"/><path class="cls-3" d="M400.66,66.44"/><line class="cls-4" x1="400.7" y1="65.97" x2="405.57" y2="65.97"/><line class="cls-5" x1="312.03" y1="16.78" x2="312.03" y2="66.47"/><line class="cls-5" x1="327.58" y1="16.78" x2="327.58" y2="66.47"/></g></g></svg>